<?xml version="1.0" encoding="UTF-8" standalone="no"?>
<!DOCTYPE svg PUBLIC "-//W3C//DTD SVG 1.1//EN"
 "http://www.w3.org/Graphics/SVG/1.1/DTD/svg11.dtd">
<!-- Generated by graphviz version 2.40.1 (20161225.0304)
 -->
<!-- Title: addresses Pages: 1 -->
<svg width="376pt" height="922pt"
 viewBox="0.00 0.00 375.50 922.00" xmlns="http://www.w3.org/2000/svg" xmlns:xlink="http://www.w3.org/1999/xlink">
<g id="graph0" class="graph" transform="scale(1 1) rotate(0) translate(4 918)">
<title>addresses</title>
<polygon fill="#ffffff" stroke="transparent" points="-4,4 -4,-918 371.5,-918 371.5,4 -4,4"/>
<!-- addresses -->
<g id="node1" class="node">
<title>addresses</title>
<polygon fill="#efefef" stroke="transparent" points="93,-832.5 93,-867.5 317,-867.5 317,-832.5 93,-832.5"/>
<polygon fill="none" stroke="#000000" points="93,-832.5 93,-867.5 317,-867.5 317,-832.5 93,-832.5"/>
<text text-anchor="start" x="99.7044" y="-845.3" font-family="Arial Bold" font-size="18.00" fill="#000000">addresses</text>
<text text-anchor="start" x="182.7276" y="-845.3" font-family="Arial" font-size="14.00" fill="#000000">    </text>
<text text-anchor="start" x="216.9324" y="-845.3" font-family="Arial" font-size="14.00" fill="#666666">[BASE TABLE]</text>
<polygon fill="none" stroke="#000000" points="93,-802.5 93,-832.5 317,-832.5 317,-802.5 93,-802.5"/>
<text text-anchor="start" x="100" y="-813.9" font-family="Arial" font-size="14.00" fill="#000000">id </text>
<text text-anchor="start" x="114.7798" y="-813.9" font-family="Arial" font-size="14.00" fill="#666666">[bigint unsigned]</text>
<polygon fill="none" stroke="#000000" points="93,-772.5 93,-802.5 317,-802.5 317,-772.5 93,-772.5"/>
<text text-anchor="start" x="100" y="-783.9" font-family="Arial" font-size="14.00" fill="#000000">user_id </text>
<text text-anchor="start" x="149.7882" y="-783.9" font-family="Arial" font-size="14.00" fill="#666666">[int]</text>
<polygon fill="none" stroke="#000000" points="93,-742.5 93,-772.5 317,-772.5 317,-742.5 93,-742.5"/>
<text text-anchor="start" x="100" y="-753.9" font-family="Arial" font-size="14.00" fill="#000000">kind </text>
<text text-anchor="start" x="129.5624" y="-753.9" font-family="Arial" font-size="14.00" fill="#666666">[int]</text>
<polygon fill="none" stroke="#000000" points="93,-712.5 93,-742.5 317,-742.5 317,-712.5 93,-712.5"/>
<text text-anchor="start" x="100" y="-723.9" font-family="Arial" font-size="14.00" fill="#000000">zipcode </text>
<text text-anchor="start" x="152.1276" y="-723.9" font-family="Arial" font-size="14.00" fill="#666666">[char(7)]</text>
<polygon fill="none" stroke="#000000" points="93,-682.5 93,-712.5 317,-712.5 317,-682.5 93,-682.5"/>
<text text-anchor="start" x="100" y="-693.9" font-family="Arial" font-size="14.00" fill="#000000">address </text>
<text text-anchor="start" x="153.6816" y="-693.9" font-family="Arial" font-size="14.00" fill="#666666">[char(255)]</text>
<polygon fill="none" stroke="#000000" points="93,-652.5 93,-682.5 317,-682.5 317,-652.5 93,-652.5"/>
<text text-anchor="start" x="100" y="-663.9" font-family="Arial" font-size="14.00" fill="#000000">street_number </text>
<text text-anchor="start" x="194.1318" y="-663.9" font-family="Arial" font-size="14.00" fill="#666666">[char(255)]</text>
<polygon fill="none" stroke="#000000" points="93,-622.5 93,-652.5 317,-652.5 317,-622.5 93,-622.5"/>
<text text-anchor="start" x="100" y="-633.9" font-family="Arial" font-size="14.00" fill="#000000">created_at </text>
<text text-anchor="start" x="170.028" y="-633.9" font-family="Arial" font-size="14.00" fill="#666666">[timestamp]</text>
<polygon fill="none" stroke="#000000" points="93,-592.5 93,-622.5 317,-622.5 317,-592.5 93,-592.5"/>
<text text-anchor="start" x="100" y="-603.9" font-family="Arial" font-size="14.00" fill="#000000">updated_at </text>
<text text-anchor="start" x="173.9326" y="-603.9" font-family="Arial" font-size="14.00" fill="#666666">[timestamp]</text>
<polygon fill="none" stroke="#000000" points="93,-562.5 93,-592.5 317,-592.5 317,-562.5 93,-562.5"/>
<text text-anchor="start" x="100" y="-573.9" font-family="Arial" font-size="14.00" fill="#000000">deleted_at </text>
<text text-anchor="start" x="169.2566" y="-573.9" font-family="Arial" font-size="14.00" fill="#666666">[timestamp]</text>
<polygon fill="none" stroke="#000000" stroke-width="3" points="91.5,-561.5 91.5,-869.5 318.5,-869.5 318.5,-561.5 91.5,-561.5"/>
</g>
<!-- users -->
<g id="node2" class="node">
<title>users</title>
<polygon fill="#efefef" stroke="transparent" points="84,-402.5 84,-437.5 325,-437.5 325,-402.5 84,-402.5"/>
<polygon fill="none" stroke="#000000" points="84,-402.5 84,-437.5 325,-437.5 325,-402.5 84,-402.5"/>
<text text-anchor="start" x="118.7137" y="-415.3" font-family="Arial Bold" font-size="18.00" fill="#000000">users</text>
<text text-anchor="start" x="162.7183" y="-415.3" font-family="Arial" font-size="14.00" fill="#000000">    </text>
<text text-anchor="start" x="196.9231" y="-415.3" font-family="Arial" font-size="14.00" fill="#666666">[BASE TABLE]</text>
<polygon fill="none" stroke="#000000" points="84,-372.5 84,-402.5 325,-402.5 325,-372.5 84,-372.5"/>
<text text-anchor="start" x="91" y="-383.9" font-family="Arial" font-size="14.00" fill="#000000">id    </text>
<text text-anchor="start" x="136.094" y="-383.9" font-family="Arial" font-size="14.00" fill="#666666">[bigint unsigned]</text>
<polygon fill="none" stroke="#000000" points="84,-342.5 84,-372.5 325,-372.5 325,-342.5 84,-342.5"/>
<text text-anchor="start" x="91" y="-353.9" font-family="Arial" font-size="14.00" fill="#000000">name    </text>
<text text-anchor="start" x="160.2132" y="-353.9" font-family="Arial" font-size="14.00" fill="#666666">[varchar(255)]</text>
<polygon fill="none" stroke="#000000" points="84,-312.5 84,-342.5 325,-342.5 325,-312.5 84,-312.5"/>
<text text-anchor="start" x="91" y="-323.9" font-family="Arial" font-size="14.00" fill="#000000">email    </text>
<text text-anchor="start" x="158.6438" y="-323.9" font-family="Arial" font-size="14.00" fill="#666666">[varchar(255)]</text>
<polygon fill="none" stroke="#000000" points="84,-282.5 84,-312.5 325,-312.5 325,-282.5 84,-282.5"/>
<text text-anchor="start" x="91" y="-293.9" font-family="Arial" font-size="14.00" fill="#000000">sub_email    </text>
<text text-anchor="start" x="188.9916" y="-293.9" font-family="Arial" font-size="14.00" fill="#666666">[varchar(255)]</text>
<polygon fill="none" stroke="#000000" points="84,-252.5 84,-282.5 325,-282.5 325,-252.5 84,-252.5"/>
<text text-anchor="start" x="91" y="-263.9" font-family="Arial" font-size="14.00" fill="#000000">email_verified_at    </text>
<text text-anchor="start" x="230.9944" y="-263.9" font-family="Arial" font-size="14.00" fill="#666666">[timestamp]</text>
<polygon fill="none" stroke="#000000" points="84,-222.5 84,-252.5 325,-252.5 325,-222.5 84,-222.5"/>
<text text-anchor="start" x="91" y="-233.9" font-family="Arial" font-size="14.00" fill="#000000">password    </text>
<text text-anchor="start" x="185.1024" y="-233.9" font-family="Arial" font-size="14.00" fill="#666666">[varchar(255)]</text>
<polygon fill="none" stroke="#000000" points="84,-192.5 84,-222.5 325,-222.5 325,-192.5 84,-192.5"/>
<text text-anchor="start" x="91" y="-203.9" font-family="Arial" font-size="14.00" fill="#000000">role    </text>
<text text-anchor="start" x="148.5372" y="-203.9" font-family="Arial" font-size="14.00" fill="#666666">[int]</text>
<polygon fill="none" stroke="#000000" points="84,-162.5 84,-192.5 325,-192.5 325,-162.5 84,-162.5"/>
<text text-anchor="start" x="91" y="-173.9" font-family="Arial" font-size="14.00" fill="#000000">gender    </text>
<text text-anchor="start" x="168.7784" y="-173.9" font-family="Arial" font-size="14.00" fill="#666666">[int]</text>
<polygon fill="none" stroke="#000000" points="84,-132.5 84,-162.5 325,-162.5 325,-132.5 84,-132.5"/>
<text text-anchor="start" x="90.9411" y="-143.9" font-family="Arial" font-size="14.00" fill="#000000">remember_token    </text>
<text text-anchor="start" x="230.9397" y="-143.9" font-family="Arial" font-size="14.00" fill="#666666">[varchar(100)]</text>
<polygon fill="none" stroke="#000000" points="84,-102.5 84,-132.5 325,-132.5 325,-102.5 84,-102.5"/>
<text text-anchor="start" x="91" y="-113.9" font-family="Arial" font-size="14.00" fill="#000000">created_at    </text>
<text text-anchor="start" x="191.3422" y="-113.9" font-family="Arial" font-size="14.00" fill="#666666">[timestamp]</text>
<polygon fill="none" stroke="#000000" points="84,-72.5 84,-102.5 325,-102.5 325,-72.5 84,-72.5"/>
<text text-anchor="start" x="91" y="-83.9" font-family="Arial" font-size="14.00" fill="#000000">updated_at    </text>
<text text-anchor="start" x="195.2468" y="-83.9" font-family="Arial" font-size="14.00" fill="#666666">[timestamp]</text>
<polygon fill="none" stroke="#000000" points="84,-42.5 84,-72.5 325,-72.5 325,-42.5 84,-42.5"/>
<text text-anchor="start" x="91" y="-53.9" font-family="Arial" font-size="14.00" fill="#000000">deleted_at    </text>
<text text-anchor="start" x="190.5708" y="-53.9" font-family="Arial" font-size="14.00" fill="#666666">[timestamp]</text>
</g>
<!-- addresses&#45;&gt;users -->
<g id="edge1" class="edge">
<title>addresses:user_id&#45;&gt;users:id</title>
<path fill="none" stroke="#000000" stroke-dasharray="5,2" d="M82.8481,-787.0453C-24.7301,-777.0752 17.0704,-605.6205 93,-517 160.891,-437.7617 257.109,-560.2383 325,-481 352.0377,-449.4432 366.5556,-387.5 325,-387.5"/>
<polygon fill="#000000" stroke="#000000" points="83.01,-787.0524 92.7986,-791.9955 88.005,-787.2762 93,-787.5 93,-787.5 93,-787.5 88.005,-787.2762 93.2014,-783.0045 83.01,-787.0524 83.01,-787.0524"/>
<text text-anchor="start" x="7.1305" y="-797.5" font-family="Arial" font-size="10.00" fill="#000000">addresses&#45;&gt;users</text>
</g>
</g>
</svg>
