<?xml version="1.0" encoding="UTF-8" standalone="no"?>
<!DOCTYPE svg PUBLIC "-//W3C//DTD SVG 1.1//EN"
 "http://www.w3.org/Graphics/SVG/1.1/DTD/svg11.dtd">
<!-- Generated by graphviz version 2.40.1 (20161225.0304)
 -->
<!-- Title: profiles Pages: 1 -->
<svg width="350pt" height="922pt"
 viewBox="0.00 0.00 349.50 922.00" xmlns="http://www.w3.org/2000/svg" xmlns:xlink="http://www.w3.org/1999/xlink">
<g id="graph0" class="graph" transform="scale(1 1) rotate(0) translate(4 918)">
<title>profiles</title>
<polygon fill="#ffffff" stroke="transparent" points="-4,4 -4,-918 345.5,-918 345.5,4 -4,4"/>
<!-- profiles -->
<g id="node1" class="node">
<title>profiles</title>
<polygon fill="#efefef" stroke="transparent" points="79,-832.5 79,-867.5 278,-867.5 278,-832.5 79,-832.5"/>
<polygon fill="none" stroke="#000000" points="79,-832.5 79,-867.5 278,-867.5 278,-832.5 79,-832.5"/>
<text text-anchor="start" x="85.7153" y="-845.3" font-family="Arial Bold" font-size="18.00" fill="#000000">profiles</text>
<text text-anchor="start" x="143.7167" y="-845.3" font-family="Arial" font-size="14.00" fill="#000000">    </text>
<text text-anchor="start" x="177.9215" y="-845.3" font-family="Arial" font-size="14.00" fill="#666666">[BASE TABLE]</text>
<polygon fill="none" stroke="#000000" points="79,-802.5 79,-832.5 278,-832.5 278,-802.5 79,-802.5"/>
<text text-anchor="start" x="86" y="-813.9" font-family="Arial" font-size="14.00" fill="#000000">id </text>
<text text-anchor="start" x="100.7798" y="-813.9" font-family="Arial" font-size="14.00" fill="#666666">[bigint unsigned]</text>
<polygon fill="none" stroke="#000000" points="79,-772.5 79,-802.5 278,-802.5 278,-772.5 79,-772.5"/>
<text text-anchor="start" x="86" y="-783.9" font-family="Arial" font-size="14.00" fill="#000000">user_id </text>
<text text-anchor="start" x="135.7882" y="-783.9" font-family="Arial" font-size="14.00" fill="#666666">[int]</text>
<polygon fill="none" stroke="#000000" points="79,-742.5 79,-772.5 278,-772.5 278,-742.5 79,-742.5"/>
<text text-anchor="start" x="86" y="-753.9" font-family="Arial" font-size="14.00" fill="#000000">hobby </text>
<text text-anchor="start" x="128.021" y="-753.9" font-family="Arial" font-size="14.00" fill="#666666">[char(255)]</text>
<polygon fill="none" stroke="#000000" points="79,-712.5 79,-742.5 278,-742.5 278,-712.5 79,-712.5"/>
<text text-anchor="start" x="86" y="-723.9" font-family="Arial" font-size="14.00" fill="#000000">blood_type </text>
<text text-anchor="start" x="158.366" y="-723.9" font-family="Arial" font-size="14.00" fill="#666666">[char(255)]</text>
<polygon fill="none" stroke="#000000" points="79,-682.5 79,-712.5 278,-712.5 278,-682.5 79,-682.5"/>
<text text-anchor="start" x="86" y="-693.9" font-family="Arial" font-size="14.00" fill="#000000">special_skill </text>
<text text-anchor="start" x="164.554" y="-693.9" font-family="Arial" font-size="14.00" fill="#666666">[char(255)]</text>
<polygon fill="none" stroke="#000000" points="79,-652.5 79,-682.5 278,-682.5 278,-652.5 79,-652.5"/>
<text text-anchor="start" x="86" y="-663.9" font-family="Arial" font-size="14.00" fill="#000000">birthday </text>
<text text-anchor="start" x="139.6788" y="-663.9" font-family="Arial" font-size="14.00" fill="#666666">[date]</text>
<polygon fill="none" stroke="#000000" points="79,-622.5 79,-652.5 278,-652.5 278,-622.5 79,-622.5"/>
<text text-anchor="start" x="86" y="-633.9" font-family="Arial" font-size="14.00" fill="#000000">created_at </text>
<text text-anchor="start" x="156.028" y="-633.9" font-family="Arial" font-size="14.00" fill="#666666">[timestamp]</text>
<polygon fill="none" stroke="#000000" points="79,-592.5 79,-622.5 278,-622.5 278,-592.5 79,-592.5"/>
<text text-anchor="start" x="86" y="-603.9" font-family="Arial" font-size="14.00" fill="#000000">updated_at </text>
<text text-anchor="start" x="159.9326" y="-603.9" font-family="Arial" font-size="14.00" fill="#666666">[timestamp]</text>
<polygon fill="none" stroke="#000000" points="79,-562.5 79,-592.5 278,-592.5 278,-562.5 79,-562.5"/>
<text text-anchor="start" x="86" y="-573.9" font-family="Arial" font-size="14.00" fill="#000000">deleted_at </text>
<text text-anchor="start" x="155.2566" y="-573.9" font-family="Arial" font-size="14.00" fill="#666666">[timestamp]</text>
<polygon fill="none" stroke="#000000" stroke-width="3" points="77,-561.5 77,-869.5 279,-869.5 279,-561.5 77,-561.5"/>
</g>
<!-- users -->
<g id="node2" class="node">
<title>users</title>
<polygon fill="#efefef" stroke="transparent" points="58,-402.5 58,-437.5 299,-437.5 299,-402.5 58,-402.5"/>
<polygon fill="none" stroke="#000000" points="58,-402.5 58,-437.5 299,-437.5 299,-402.5 58,-402.5"/>
<text text-anchor="start" x="92.7137" y="-415.3" font-family="Arial Bold" font-size="18.00" fill="#000000">users</text>
<text text-anchor="start" x="136.7183" y="-415.3" font-family="Arial" font-size="14.00" fill="#000000">    </text>
<text text-anchor="start" x="170.9231" y="-415.3" font-family="Arial" font-size="14.00" fill="#666666">[BASE TABLE]</text>
<polygon fill="none" stroke="#000000" points="58,-372.5 58,-402.5 299,-402.5 299,-372.5 58,-372.5"/>
<text text-anchor="start" x="65" y="-383.9" font-family="Arial" font-size="14.00" fill="#000000">id    </text>
<text text-anchor="start" x="110.094" y="-383.9" font-family="Arial" font-size="14.00" fill="#666666">[bigint unsigned]</text>
<polygon fill="none" stroke="#000000" points="58,-342.5 58,-372.5 299,-372.5 299,-342.5 58,-342.5"/>
<text text-anchor="start" x="65" y="-353.9" font-family="Arial" font-size="14.00" fill="#000000">name    </text>
<text text-anchor="start" x="134.2132" y="-353.9" font-family="Arial" font-size="14.00" fill="#666666">[varchar(255)]</text>
<polygon fill="none" stroke="#000000" points="58,-312.5 58,-342.5 299,-342.5 299,-312.5 58,-312.5"/>
<text text-anchor="start" x="65" y="-323.9" font-family="Arial" font-size="14.00" fill="#000000">email    </text>
<text text-anchor="start" x="132.6438" y="-323.9" font-family="Arial" font-size="14.00" fill="#666666">[varchar(255)]</text>
<polygon fill="none" stroke="#000000" points="58,-282.5 58,-312.5 299,-312.5 299,-282.5 58,-282.5"/>
<text text-anchor="start" x="65" y="-293.9" font-family="Arial" font-size="14.00" fill="#000000">sub_email    </text>
<text text-anchor="start" x="162.9916" y="-293.9" font-family="Arial" font-size="14.00" fill="#666666">[varchar(255)]</text>
<polygon fill="none" stroke="#000000" points="58,-252.5 58,-282.5 299,-282.5 299,-252.5 58,-252.5"/>
<text text-anchor="start" x="65" y="-263.9" font-family="Arial" font-size="14.00" fill="#000000">email_verified_at    </text>
<text text-anchor="start" x="204.9944" y="-263.9" font-family="Arial" font-size="14.00" fill="#666666">[timestamp]</text>
<polygon fill="none" stroke="#000000" points="58,-222.5 58,-252.5 299,-252.5 299,-222.5 58,-222.5"/>
<text text-anchor="start" x="65" y="-233.9" font-family="Arial" font-size="14.00" fill="#000000">password    </text>
<text text-anchor="start" x="159.1024" y="-233.9" font-family="Arial" font-size="14.00" fill="#666666">[varchar(255)]</text>
<polygon fill="none" stroke="#000000" points="58,-192.5 58,-222.5 299,-222.5 299,-192.5 58,-192.5"/>
<text text-anchor="start" x="65" y="-203.9" font-family="Arial" font-size="14.00" fill="#000000">role    </text>
<text text-anchor="start" x="122.5372" y="-203.9" font-family="Arial" font-size="14.00" fill="#666666">[int]</text>
<polygon fill="none" stroke="#000000" points="58,-162.5 58,-192.5 299,-192.5 299,-162.5 58,-162.5"/>
<text text-anchor="start" x="65" y="-173.9" font-family="Arial" font-size="14.00" fill="#000000">gender    </text>
<text text-anchor="start" x="142.7784" y="-173.9" font-family="Arial" font-size="14.00" fill="#666666">[int]</text>
<polygon fill="none" stroke="#000000" points="58,-132.5 58,-162.5 299,-162.5 299,-132.5 58,-132.5"/>
<text text-anchor="start" x="64.9411" y="-143.9" font-family="Arial" font-size="14.00" fill="#000000">remember_token    </text>
<text text-anchor="start" x="204.9397" y="-143.9" font-family="Arial" font-size="14.00" fill="#666666">[varchar(100)]</text>
<polygon fill="none" stroke="#000000" points="58,-102.5 58,-132.5 299,-132.5 299,-102.5 58,-102.5"/>
<text text-anchor="start" x="65" y="-113.9" font-family="Arial" font-size="14.00" fill="#000000">created_at    </text>
<text text-anchor="start" x="165.3422" y="-113.9" font-family="Arial" font-size="14.00" fill="#666666">[timestamp]</text>
<polygon fill="none" stroke="#000000" points="58,-72.5 58,-102.5 299,-102.5 299,-72.5 58,-72.5"/>
<text text-anchor="start" x="65" y="-83.9" font-family="Arial" font-size="14.00" fill="#000000">updated_at    </text>
<text text-anchor="start" x="169.2468" y="-83.9" font-family="Arial" font-size="14.00" fill="#666666">[timestamp]</text>
<polygon fill="none" stroke="#000000" points="58,-42.5 58,-72.5 299,-72.5 299,-42.5 58,-42.5"/>
<text text-anchor="start" x="65" y="-53.9" font-family="Arial" font-size="14.00" fill="#000000">deleted_at    </text>
<text text-anchor="start" x="164.5708" y="-53.9" font-family="Arial" font-size="14.00" fill="#666666">[timestamp]</text>
</g>
<!-- profiles&#45;&gt;users -->
<g id="edge1" class="edge">
<title>profiles:user_id&#45;&gt;users:id</title>
<path fill="none" stroke="#000000" stroke-dasharray="5,2" d="M68.8828,-785.7166C-11.4841,-756.8604 -27.5343,-387.5 58,-387.5"/>
<polygon fill="#000000" stroke="#000000" points="69.1518,-785.764 78.2188,-791.9317 74.0759,-786.632 79,-787.5 79,-787.5 79,-787.5 74.0759,-786.632 79.7812,-783.0683 69.1518,-785.764 69.1518,-785.764"/>
<text text-anchor="start" x="7.081" y="-797.5" font-family="Arial" font-size="10.00" fill="#000000">profiles&#45;&gt;users</text>
</g>
</g>
</svg>
