<?xml version="1.0" encoding="UTF-8" standalone="no"?>
<!DOCTYPE svg PUBLIC "-//W3C//DTD SVG 1.1//EN"
 "http://www.w3.org/Graphics/SVG/1.1/DTD/svg11.dtd">
<!-- Generated by graphviz version 2.40.1 (20161225.0304)
 -->
<!-- Title: pims_test Pages: 1 -->
<svg width="2160pt" height="946pt"
 viewBox="0.00 0.00 2159.50 946.00" xmlns="http://www.w3.org/2000/svg" xmlns:xlink="http://www.w3.org/1999/xlink">
<g id="graph0" class="graph" transform="scale(1 1) rotate(0) translate(4 942)">
<title>pims_test</title>
<polygon fill="#ffffff" stroke="transparent" points="-4,4 -4,-942 2155.5,-942 2155.5,4 -4,4"/>
<!-- addresses -->
<g id="node1" class="node">
<title>addresses</title>
<polygon fill="#efefef" stroke="transparent" points="43,-844.5 43,-879.5 267,-879.5 267,-844.5 43,-844.5"/>
<polygon fill="none" stroke="#000000" points="43,-844.5 43,-879.5 267,-879.5 267,-844.5 43,-844.5"/>
<text text-anchor="start" x="49.7044" y="-857.3" font-family="Arial Bold" font-size="18.00" fill="#000000">addresses</text>
<text text-anchor="start" x="132.7276" y="-857.3" font-family="Arial" font-size="14.00" fill="#000000">    </text>
<text text-anchor="start" x="166.9324" y="-857.3" font-family="Arial" font-size="14.00" fill="#666666">[BASE TABLE]</text>
<polygon fill="none" stroke="#000000" points="43,-814.5 43,-844.5 267,-844.5 267,-814.5 43,-814.5"/>
<text text-anchor="start" x="50" y="-825.9" font-family="Arial" font-size="14.00" fill="#000000">id    </text>
<text text-anchor="start" x="95.094" y="-825.9" font-family="Arial" font-size="14.00" fill="#666666">[bigint unsigned]</text>
<polygon fill="none" stroke="#000000" points="43,-784.5 43,-814.5 267,-814.5 267,-784.5 43,-784.5"/>
<text text-anchor="start" x="50" y="-795.9" font-family="Arial" font-size="14.00" fill="#000000">user_id    </text>
<text text-anchor="start" x="130.1024" y="-795.9" font-family="Arial" font-size="14.00" fill="#666666">[int]</text>
<polygon fill="none" stroke="#000000" points="43,-754.5 43,-784.5 267,-784.5 267,-754.5 43,-754.5"/>
<text text-anchor="start" x="50" y="-765.9" font-family="Arial" font-size="14.00" fill="#000000">kind    </text>
<text text-anchor="start" x="109.8766" y="-765.9" font-family="Arial" font-size="14.00" fill="#666666">[int]</text>
<polygon fill="none" stroke="#000000" points="43,-724.5 43,-754.5 267,-754.5 267,-724.5 43,-724.5"/>
<text text-anchor="start" x="50" y="-735.9" font-family="Arial" font-size="14.00" fill="#000000">zipcode    </text>
<text text-anchor="start" x="132.4418" y="-735.9" font-family="Arial" font-size="14.00" fill="#666666">[char(7)]</text>
<polygon fill="none" stroke="#000000" points="43,-694.5 43,-724.5 267,-724.5 267,-694.5 43,-694.5"/>
<text text-anchor="start" x="50" y="-705.9" font-family="Arial" font-size="14.00" fill="#000000">address    </text>
<text text-anchor="start" x="133.9958" y="-705.9" font-family="Arial" font-size="14.00" fill="#666666">[char(255)]</text>
<polygon fill="none" stroke="#000000" points="43,-664.5 43,-694.5 267,-694.5 267,-664.5 43,-664.5"/>
<text text-anchor="start" x="50" y="-675.9" font-family="Arial" font-size="14.00" fill="#000000">street_number    </text>
<text text-anchor="start" x="174.446" y="-675.9" font-family="Arial" font-size="14.00" fill="#666666">[char(255)]</text>
<polygon fill="none" stroke="#000000" points="43,-634.5 43,-664.5 267,-664.5 267,-634.5 43,-634.5"/>
<text text-anchor="start" x="50" y="-645.9" font-family="Arial" font-size="14.00" fill="#000000">created_at    </text>
<text text-anchor="start" x="150.3422" y="-645.9" font-family="Arial" font-size="14.00" fill="#666666">[timestamp]</text>
<polygon fill="none" stroke="#000000" points="43,-604.5 43,-634.5 267,-634.5 267,-604.5 43,-604.5"/>
<text text-anchor="start" x="50" y="-615.9" font-family="Arial" font-size="14.00" fill="#000000">updated_at    </text>
<text text-anchor="start" x="154.2468" y="-615.9" font-family="Arial" font-size="14.00" fill="#666666">[timestamp]</text>
<polygon fill="none" stroke="#000000" points="43,-574.5 43,-604.5 267,-604.5 267,-574.5 43,-574.5"/>
<text text-anchor="start" x="50" y="-585.9" font-family="Arial" font-size="14.00" fill="#000000">deleted_at    </text>
<text text-anchor="start" x="149.5708" y="-585.9" font-family="Arial" font-size="14.00" fill="#666666">[timestamp]</text>
</g>
<!-- users -->
<g id="node7" class="node">
<title>users</title>
<polygon fill="#efefef" stroke="transparent" points="192,-402.5 192,-437.5 433,-437.5 433,-402.5 192,-402.5"/>
<polygon fill="none" stroke="#000000" points="192,-402.5 192,-437.5 433,-437.5 433,-402.5 192,-402.5"/>
<text text-anchor="start" x="226.7137" y="-415.3" font-family="Arial Bold" font-size="18.00" fill="#000000">users</text>
<text text-anchor="start" x="270.7183" y="-415.3" font-family="Arial" font-size="14.00" fill="#000000">    </text>
<text text-anchor="start" x="304.9231" y="-415.3" font-family="Arial" font-size="14.00" fill="#666666">[BASE TABLE]</text>
<polygon fill="none" stroke="#000000" points="192,-372.5 192,-402.5 433,-402.5 433,-372.5 192,-372.5"/>
<text text-anchor="start" x="199" y="-383.9" font-family="Arial" font-size="14.00" fill="#000000">id    </text>
<text text-anchor="start" x="244.094" y="-383.9" font-family="Arial" font-size="14.00" fill="#666666">[bigint unsigned]</text>
<polygon fill="none" stroke="#000000" points="192,-342.5 192,-372.5 433,-372.5 433,-342.5 192,-342.5"/>
<text text-anchor="start" x="199" y="-353.9" font-family="Arial" font-size="14.00" fill="#000000">name    </text>
<text text-anchor="start" x="268.2132" y="-353.9" font-family="Arial" font-size="14.00" fill="#666666">[varchar(255)]</text>
<polygon fill="none" stroke="#000000" points="192,-312.5 192,-342.5 433,-342.5 433,-312.5 192,-312.5"/>
<text text-anchor="start" x="199" y="-323.9" font-family="Arial" font-size="14.00" fill="#000000">email    </text>
<text text-anchor="start" x="266.6438" y="-323.9" font-family="Arial" font-size="14.00" fill="#666666">[varchar(255)]</text>
<polygon fill="none" stroke="#000000" points="192,-282.5 192,-312.5 433,-312.5 433,-282.5 192,-282.5"/>
<text text-anchor="start" x="199" y="-293.9" font-family="Arial" font-size="14.00" fill="#000000">sub_email    </text>
<text text-anchor="start" x="296.9916" y="-293.9" font-family="Arial" font-size="14.00" fill="#666666">[varchar(255)]</text>
<polygon fill="none" stroke="#000000" points="192,-252.5 192,-282.5 433,-282.5 433,-252.5 192,-252.5"/>
<text text-anchor="start" x="199" y="-263.9" font-family="Arial" font-size="14.00" fill="#000000">email_verified_at    </text>
<text text-anchor="start" x="338.9944" y="-263.9" font-family="Arial" font-size="14.00" fill="#666666">[timestamp]</text>
<polygon fill="none" stroke="#000000" points="192,-222.5 192,-252.5 433,-252.5 433,-222.5 192,-222.5"/>
<text text-anchor="start" x="199" y="-233.9" font-family="Arial" font-size="14.00" fill="#000000">password    </text>
<text text-anchor="start" x="293.1024" y="-233.9" font-family="Arial" font-size="14.00" fill="#666666">[varchar(255)]</text>
<polygon fill="none" stroke="#000000" points="192,-192.5 192,-222.5 433,-222.5 433,-192.5 192,-192.5"/>
<text text-anchor="start" x="199" y="-203.9" font-family="Arial" font-size="14.00" fill="#000000">role    </text>
<text text-anchor="start" x="256.5372" y="-203.9" font-family="Arial" font-size="14.00" fill="#666666">[int]</text>
<polygon fill="none" stroke="#000000" points="192,-162.5 192,-192.5 433,-192.5 433,-162.5 192,-162.5"/>
<text text-anchor="start" x="199" y="-173.9" font-family="Arial" font-size="14.00" fill="#000000">gender    </text>
<text text-anchor="start" x="276.7784" y="-173.9" font-family="Arial" font-size="14.00" fill="#666666">[int]</text>
<polygon fill="none" stroke="#000000" points="192,-132.5 192,-162.5 433,-162.5 433,-132.5 192,-132.5"/>
<text text-anchor="start" x="198.9411" y="-143.9" font-family="Arial" font-size="14.00" fill="#000000">remember_token    </text>
<text text-anchor="start" x="338.9397" y="-143.9" font-family="Arial" font-size="14.00" fill="#666666">[varchar(100)]</text>
<polygon fill="none" stroke="#000000" points="192,-102.5 192,-132.5 433,-132.5 433,-102.5 192,-102.5"/>
<text text-anchor="start" x="199" y="-113.9" font-family="Arial" font-size="14.00" fill="#000000">created_at    </text>
<text text-anchor="start" x="299.3422" y="-113.9" font-family="Arial" font-size="14.00" fill="#666666">[timestamp]</text>
<polygon fill="none" stroke="#000000" points="192,-72.5 192,-102.5 433,-102.5 433,-72.5 192,-72.5"/>
<text text-anchor="start" x="199" y="-83.9" font-family="Arial" font-size="14.00" fill="#000000">updated_at    </text>
<text text-anchor="start" x="303.2468" y="-83.9" font-family="Arial" font-size="14.00" fill="#666666">[timestamp]</text>
<polygon fill="none" stroke="#000000" points="192,-42.5 192,-72.5 433,-72.5 433,-42.5 192,-42.5"/>
<text text-anchor="start" x="199" y="-53.9" font-family="Arial" font-size="14.00" fill="#000000">deleted_at    </text>
<text text-anchor="start" x="298.5708" y="-53.9" font-family="Arial" font-size="14.00" fill="#666666">[timestamp]</text>
</g>
<!-- addresses&#45;&gt;users -->
<g id="edge1" class="edge">
<title>addresses:user_id&#45;&gt;users:id</title>
<path fill="none" stroke="#000000" stroke-dasharray="5,2" d="M276.8169,-797.2197C322.6276,-774.065 293.1249,-581.3577 267,-532 248.1427,-496.3729 210.8573,-516.6271 192,-481 172.5599,-444.272 150.4444,-387.5 192,-387.5"/>
<polygon fill="#000000" stroke="#000000" points="276.7407,-797.2373 265.9818,-795.1167 271.8703,-798.3687 267,-799.5 267,-799.5 267,-799.5 271.8703,-798.3687 268.0182,-803.8833 276.7407,-797.2373 276.7407,-797.2373"/>
<text text-anchor="start" x="274.1305" y="-809.5" font-family="Arial" font-size="10.00" fill="#000000">addresses&#45;&gt;users</text>
</g>
<!-- failed_jobs -->
<g id="node2" class="node">
<title>failed_jobs</title>
<polygon fill="#efefef" stroke="transparent" points="675,-814.5 675,-849.5 902,-849.5 902,-814.5 675,-814.5"/>
<polygon fill="none" stroke="#000000" points="675,-814.5 675,-849.5 902,-849.5 902,-814.5 675,-814.5"/>
<text text-anchor="start" x="681.705" y="-827.3" font-family="Arial Bold" font-size="18.00" fill="#000000">failed_jobs</text>
<text text-anchor="start" x="767.727" y="-827.3" font-family="Arial" font-size="14.00" fill="#000000">    </text>
<text text-anchor="start" x="801.9318" y="-827.3" font-family="Arial" font-size="14.00" fill="#666666">[BASE TABLE]</text>
<polygon fill="none" stroke="#000000" points="675,-784.5 675,-814.5 902,-814.5 902,-784.5 675,-784.5"/>
<text text-anchor="start" x="682" y="-795.9" font-family="Arial" font-size="14.00" fill="#000000">id    </text>
<text text-anchor="start" x="727.094" y="-795.9" font-family="Arial" font-size="14.00" fill="#666666">[bigint unsigned]</text>
<polygon fill="none" stroke="#000000" points="675,-754.5 675,-784.5 902,-784.5 902,-754.5 675,-754.5"/>
<text text-anchor="start" x="682" y="-765.9" font-family="Arial" font-size="14.00" fill="#000000">uuid    </text>
<text text-anchor="start" x="742.6592" y="-765.9" font-family="Arial" font-size="14.00" fill="#666666">[varchar(255)]</text>
<polygon fill="none" stroke="#000000" points="675,-724.5 675,-754.5 902,-754.5 902,-724.5 675,-724.5"/>
<text text-anchor="start" x="682" y="-735.9" font-family="Arial" font-size="14.00" fill="#000000">connection    </text>
<text text-anchor="start" x="783.8976" y="-735.9" font-family="Arial" font-size="14.00" fill="#666666">[text]</text>
<polygon fill="none" stroke="#000000" points="675,-694.5 675,-724.5 902,-724.5 902,-694.5 675,-694.5"/>
<text text-anchor="start" x="682" y="-705.9" font-family="Arial" font-size="14.00" fill="#000000">queue    </text>
<text text-anchor="start" x="755.1178" y="-705.9" font-family="Arial" font-size="14.00" fill="#666666">[text]</text>
<polygon fill="none" stroke="#000000" points="675,-664.5 675,-694.5 902,-694.5 902,-664.5 675,-664.5"/>
<text text-anchor="start" x="682" y="-675.9" font-family="Arial" font-size="14.00" fill="#000000">payload    </text>
<text text-anchor="start" x="765.2244" y="-675.9" font-family="Arial" font-size="14.00" fill="#666666">[longtext]</text>
<polygon fill="none" stroke="#000000" points="675,-634.5 675,-664.5 902,-664.5 902,-634.5 675,-634.5"/>
<text text-anchor="start" x="682" y="-645.9" font-family="Arial" font-size="14.00" fill="#000000">exception    </text>
<text text-anchor="start" x="776.115" y="-645.9" font-family="Arial" font-size="14.00" fill="#666666">[longtext]</text>
<polygon fill="none" stroke="#000000" points="675,-604.5 675,-634.5 902,-634.5 902,-604.5 675,-604.5"/>
<text text-anchor="start" x="682" y="-615.9" font-family="Arial" font-size="14.00" fill="#000000">failed_at    </text>
<text text-anchor="start" x="769.1122" y="-615.9" font-family="Arial" font-size="14.00" fill="#666666">[timestamp]</text>
</g>
<!-- migrations -->
<g id="node3" class="node">
<title>migrations</title>
<polygon fill="#efefef" stroke="transparent" points="1006,-754.5 1006,-789.5 1230,-789.5 1230,-754.5 1006,-754.5"/>
<polygon fill="none" stroke="#000000" points="1006,-754.5 1006,-789.5 1230,-789.5 1230,-754.5 1006,-754.5"/>
<text text-anchor="start" x="1012.7161" y="-767.3" font-family="Arial Bold" font-size="18.00" fill="#000000">migrations</text>
<text text-anchor="start" x="1095.7159" y="-767.3" font-family="Arial" font-size="14.00" fill="#000000">    </text>
<text text-anchor="start" x="1129.9207" y="-767.3" font-family="Arial" font-size="14.00" fill="#666666">[BASE TABLE]</text>
<polygon fill="none" stroke="#000000" points="1006,-724.5 1006,-754.5 1230,-754.5 1230,-724.5 1006,-724.5"/>
<text text-anchor="start" x="1013" y="-735.9" font-family="Arial" font-size="14.00" fill="#000000">id    </text>
<text text-anchor="start" x="1058.094" y="-735.9" font-family="Arial" font-size="14.00" fill="#666666">[int unsigned]</text>
<polygon fill="none" stroke="#000000" points="1006,-694.5 1006,-724.5 1230,-724.5 1230,-694.5 1006,-694.5"/>
<text text-anchor="start" x="1013" y="-705.9" font-family="Arial" font-size="14.00" fill="#000000">migration    </text>
<text text-anchor="start" x="1104.7602" y="-705.9" font-family="Arial" font-size="14.00" fill="#666666">[varchar(255)]</text>
<polygon fill="none" stroke="#000000" points="1006,-664.5 1006,-694.5 1230,-694.5 1230,-664.5 1006,-664.5"/>
<text text-anchor="start" x="1013" y="-675.9" font-family="Arial" font-size="14.00" fill="#000000">batch    </text>
<text text-anchor="start" x="1081.4432" y="-675.9" font-family="Arial" font-size="14.00" fill="#666666">[int]</text>
</g>
<!-- password_reset_tokens -->
<g id="node4" class="node">
<title>password_reset_tokens</title>
<polygon fill="#efefef" stroke="transparent" points="1335,-754.5 1335,-789.5 1666,-789.5 1666,-754.5 1335,-754.5"/>
<polygon fill="none" stroke="#000000" points="1335,-754.5 1335,-789.5 1666,-789.5 1666,-754.5 1335,-754.5"/>
<text text-anchor="start" x="1341.6904" y="-767.3" font-family="Arial Bold" font-size="18.00" fill="#000000">password_reset_tokens</text>
<text text-anchor="start" x="1531.7416" y="-767.3" font-family="Arial" font-size="14.00" fill="#000000">    </text>
<text text-anchor="start" x="1565.9464" y="-767.3" font-family="Arial" font-size="14.00" fill="#666666">[BASE TABLE]</text>
<polygon fill="none" stroke="#000000" points="1335,-724.5 1335,-754.5 1666,-754.5 1666,-724.5 1335,-724.5"/>
<text text-anchor="start" x="1342" y="-735.9" font-family="Arial" font-size="14.00" fill="#000000">email    </text>
<text text-anchor="start" x="1409.6438" y="-735.9" font-family="Arial" font-size="14.00" fill="#666666">[varchar(255)]</text>
<polygon fill="none" stroke="#000000" points="1335,-694.5 1335,-724.5 1666,-724.5 1666,-694.5 1335,-694.5"/>
<text text-anchor="start" x="1342" y="-705.9" font-family="Arial" font-size="14.00" fill="#000000">token    </text>
<text text-anchor="start" x="1410.4432" y="-705.9" font-family="Arial" font-size="14.00" fill="#666666">[varchar(255)]</text>
<polygon fill="none" stroke="#000000" points="1335,-664.5 1335,-694.5 1666,-694.5 1666,-664.5 1335,-664.5"/>
<text text-anchor="start" x="1342" y="-675.9" font-family="Arial" font-size="14.00" fill="#000000">created_at    </text>
<text text-anchor="start" x="1442.3422" y="-675.9" font-family="Arial" font-size="14.00" fill="#666666">[timestamp]</text>
</g>
<!-- personal_access_tokens -->
<g id="node5" class="node">
<title>personal_access_tokens</title>
<polygon fill="#efefef" stroke="transparent" points="1770,-859.5 1770,-894.5 2109,-894.5 2109,-859.5 1770,-859.5"/>
<polygon fill="none" stroke="#000000" points="1770,-859.5 1770,-894.5 2109,-894.5 2109,-859.5 1770,-859.5"/>
<text text-anchor="start" x="1776.6845" y="-872.3" font-family="Arial Bold" font-size="18.00" fill="#000000">personal_access_tokens</text>
<text text-anchor="start" x="1974.7475" y="-872.3" font-family="Arial" font-size="14.00" fill="#000000">    </text>
<text text-anchor="start" x="2008.9523" y="-872.3" font-family="Arial" font-size="14.00" fill="#666666">[BASE TABLE]</text>
<polygon fill="none" stroke="#000000" points="1770,-829.5 1770,-859.5 2109,-859.5 2109,-829.5 1770,-829.5"/>
<text text-anchor="start" x="1777" y="-840.9" font-family="Arial" font-size="14.00" fill="#000000">id    </text>
<text text-anchor="start" x="1822.094" y="-840.9" font-family="Arial" font-size="14.00" fill="#666666">[bigint unsigned]</text>
<polygon fill="none" stroke="#000000" points="1770,-799.5 1770,-829.5 2109,-829.5 2109,-799.5 1770,-799.5"/>
<text text-anchor="start" x="1777" y="-810.9" font-family="Arial" font-size="14.00" fill="#000000">tokenable_type    </text>
<text text-anchor="start" x="1906.136" y="-810.9" font-family="Arial" font-size="14.00" fill="#666666">[varchar(255)]</text>
<polygon fill="none" stroke="#000000" points="1770,-769.5 1770,-799.5 2109,-799.5 2109,-769.5 1770,-769.5"/>
<text text-anchor="start" x="1777" y="-780.9" font-family="Arial" font-size="14.00" fill="#000000">tokenable_id    </text>
<text text-anchor="start" x="1890.5694" y="-780.9" font-family="Arial" font-size="14.00" fill="#666666">[bigint unsigned]</text>
<polygon fill="none" stroke="#000000" points="1770,-739.5 1770,-769.5 2109,-769.5 2109,-739.5 1770,-739.5"/>
<text text-anchor="start" x="1777" y="-750.9" font-family="Arial" font-size="14.00" fill="#000000">name    </text>
<text text-anchor="start" x="1846.2132" y="-750.9" font-family="Arial" font-size="14.00" fill="#666666">[varchar(255)]</text>
<polygon fill="none" stroke="#000000" points="1770,-709.5 1770,-739.5 2109,-739.5 2109,-709.5 1770,-709.5"/>
<text text-anchor="start" x="1777" y="-720.9" font-family="Arial" font-size="14.00" fill="#000000">token    </text>
<text text-anchor="start" x="1845.4432" y="-720.9" font-family="Arial" font-size="14.00" fill="#666666">[varchar(64)]</text>
<polygon fill="none" stroke="#000000" points="1770,-679.5 1770,-709.5 2109,-709.5 2109,-679.5 1770,-679.5"/>
<text text-anchor="start" x="1777" y="-690.9" font-family="Arial" font-size="14.00" fill="#000000">abilities    </text>
<text text-anchor="start" x="1857.8696" y="-690.9" font-family="Arial" font-size="14.00" fill="#666666">[text]</text>
<polygon fill="none" stroke="#000000" points="1770,-649.5 1770,-679.5 2109,-679.5 2109,-649.5 1770,-649.5"/>
<text text-anchor="start" x="1777" y="-660.9" font-family="Arial" font-size="14.00" fill="#000000">last_used_at    </text>
<text text-anchor="start" x="1890.5708" y="-660.9" font-family="Arial" font-size="14.00" fill="#666666">[timestamp]</text>
<polygon fill="none" stroke="#000000" points="1770,-619.5 1770,-649.5 2109,-649.5 2109,-619.5 1770,-619.5"/>
<text text-anchor="start" x="1777" y="-630.9" font-family="Arial" font-size="14.00" fill="#000000">expires_at    </text>
<text text-anchor="start" x="1875.7756" y="-630.9" font-family="Arial" font-size="14.00" fill="#666666">[timestamp]</text>
<polygon fill="none" stroke="#000000" points="1770,-589.5 1770,-619.5 2109,-619.5 2109,-589.5 1770,-589.5"/>
<text text-anchor="start" x="1777" y="-600.9" font-family="Arial" font-size="14.00" fill="#000000">created_at    </text>
<text text-anchor="start" x="1877.3422" y="-600.9" font-family="Arial" font-size="14.00" fill="#666666">[timestamp]</text>
<polygon fill="none" stroke="#000000" points="1770,-559.5 1770,-589.5 2109,-589.5 2109,-559.5 1770,-559.5"/>
<text text-anchor="start" x="1777" y="-570.9" font-family="Arial" font-size="14.00" fill="#000000">updated_at    </text>
<text text-anchor="start" x="1881.2468" y="-570.9" font-family="Arial" font-size="14.00" fill="#666666">[timestamp]</text>
</g>
<!-- profiles -->
<g id="node6" class="node">
<title>profiles</title>
<polygon fill="#efefef" stroke="transparent" points="372,-844.5 372,-879.5 571,-879.5 571,-844.5 372,-844.5"/>
<polygon fill="none" stroke="#000000" points="372,-844.5 372,-879.5 571,-879.5 571,-844.5 372,-844.5"/>
<text text-anchor="start" x="378.7153" y="-857.3" font-family="Arial Bold" font-size="18.00" fill="#000000">profiles</text>
<text text-anchor="start" x="436.7167" y="-857.3" font-family="Arial" font-size="14.00" fill="#000000">    </text>
<text text-anchor="start" x="470.9215" y="-857.3" font-family="Arial" font-size="14.00" fill="#666666">[BASE TABLE]</text>
<polygon fill="none" stroke="#000000" points="372,-814.5 372,-844.5 571,-844.5 571,-814.5 372,-814.5"/>
<text text-anchor="start" x="379" y="-825.9" font-family="Arial" font-size="14.00" fill="#000000">id    </text>
<text text-anchor="start" x="424.094" y="-825.9" font-family="Arial" font-size="14.00" fill="#666666">[bigint unsigned]</text>
<polygon fill="none" stroke="#000000" points="372,-784.5 372,-814.5 571,-814.5 571,-784.5 372,-784.5"/>
<text text-anchor="start" x="379" y="-795.9" font-family="Arial" font-size="14.00" fill="#000000">user_id    </text>
<text text-anchor="start" x="459.1024" y="-795.9" font-family="Arial" font-size="14.00" fill="#666666">[int]</text>
<polygon fill="none" stroke="#000000" points="372,-754.5 372,-784.5 571,-784.5 571,-754.5 372,-754.5"/>
<text text-anchor="start" x="379" y="-765.9" font-family="Arial" font-size="14.00" fill="#000000">hobby    </text>
<text text-anchor="start" x="451.3352" y="-765.9" font-family="Arial" font-size="14.00" fill="#666666">[char(255)]</text>
<polygon fill="none" stroke="#000000" points="372,-724.5 372,-754.5 571,-754.5 571,-724.5 372,-724.5"/>
<text text-anchor="start" x="379" y="-735.9" font-family="Arial" font-size="14.00" fill="#000000">blood_type    </text>
<text text-anchor="start" x="481.6802" y="-735.9" font-family="Arial" font-size="14.00" fill="#666666">[char(255)]</text>
<polygon fill="none" stroke="#000000" points="372,-694.5 372,-724.5 571,-724.5 571,-694.5 372,-694.5"/>
<text text-anchor="start" x="379" y="-705.9" font-family="Arial" font-size="14.00" fill="#000000">special_skill    </text>
<text text-anchor="start" x="487.8682" y="-705.9" font-family="Arial" font-size="14.00" fill="#666666">[char(255)]</text>
<polygon fill="none" stroke="#000000" points="372,-664.5 372,-694.5 571,-694.5 571,-664.5 372,-664.5"/>
<text text-anchor="start" x="379" y="-675.9" font-family="Arial" font-size="14.00" fill="#000000">birthday    </text>
<text text-anchor="start" x="462.993" y="-675.9" font-family="Arial" font-size="14.00" fill="#666666">[date]</text>
<polygon fill="none" stroke="#000000" points="372,-634.5 372,-664.5 571,-664.5 571,-634.5 372,-634.5"/>
<text text-anchor="start" x="379" y="-645.9" font-family="Arial" font-size="14.00" fill="#000000">created_at    </text>
<text text-anchor="start" x="479.3422" y="-645.9" font-family="Arial" font-size="14.00" fill="#666666">[timestamp]</text>
<polygon fill="none" stroke="#000000" points="372,-604.5 372,-634.5 571,-634.5 571,-604.5 372,-604.5"/>
<text text-anchor="start" x="379" y="-615.9" font-family="Arial" font-size="14.00" fill="#000000">updated_at    </text>
<text text-anchor="start" x="483.2468" y="-615.9" font-family="Arial" font-size="14.00" fill="#666666">[timestamp]</text>
<polygon fill="none" stroke="#000000" points="372,-574.5 372,-604.5 571,-604.5 571,-574.5 372,-574.5"/>
<text text-anchor="start" x="379" y="-585.9" font-family="Arial" font-size="14.00" fill="#000000">deleted_at    </text>
<text text-anchor="start" x="478.5708" y="-585.9" font-family="Arial" font-size="14.00" fill="#666666">[timestamp]</text>
</g>
<!-- profiles&#45;&gt;users -->
<g id="edge2" class="edge">
<title>profiles:user_id&#45;&gt;users:id</title>
<path fill="none" stroke="#000000" stroke-dasharray="5,2" d="M362.2103,-797.2332C316.6726,-774.2144 348.3537,-582.5919 372,-532 386.9631,-499.986 418.0369,-513.014 433,-481 450.5957,-443.3535 474.5556,-387.5 433,-387.5"/>
<polygon fill="#000000" stroke="#000000" points="362.2577,-797.2441 370.9849,-803.884 367.1289,-798.3721 372,-799.5 372,-799.5 372,-799.5 367.1289,-798.3721 373.0151,-795.116 362.2577,-797.2441 362.2577,-797.2441"/>
<text text-anchor="start" x="300.081" y="-783.5" font-family="Arial" font-size="10.00" fill="#000000">profiles&#45;&gt;users</text>
</g>
</g>
</svg>
