<?xml version="1.0" encoding="UTF-8" standalone="no"?>
<!DOCTYPE svg PUBLIC "-//W3C//DTD SVG 1.1//EN"
 "http://www.w3.org/Graphics/SVG/1.1/DTD/svg11.dtd">
<!-- Generated by graphviz version 2.40.1 (20161225.0304)
 -->
<!-- Title: users Pages: 1 -->
<svg width="622pt" height="922pt"
 viewBox="0.00 0.00 621.50 922.00" xmlns="http://www.w3.org/2000/svg" xmlns:xlink="http://www.w3.org/1999/xlink">
<g id="graph0" class="graph" transform="scale(1 1) rotate(0) translate(4 918)">
<title>users</title>
<polygon fill="#ffffff" stroke="transparent" points="-4,4 -4,-918 617.5,-918 617.5,4 -4,4"/>
<!-- users -->
<g id="node1" class="node">
<title>users</title>
<polygon fill="#efefef" stroke="transparent" points="208,-405.5 208,-440.5 418,-440.5 418,-405.5 208,-405.5"/>
<polygon fill="none" stroke="#000000" points="208,-405.5 208,-440.5 418,-440.5 418,-405.5 208,-405.5"/>
<text text-anchor="start" x="227.2137" y="-418.3" font-family="Arial Bold" font-size="18.00" fill="#000000">users</text>
<text text-anchor="start" x="271.2183" y="-418.3" font-family="Arial" font-size="14.00" fill="#000000">    </text>
<text text-anchor="start" x="305.4231" y="-418.3" font-family="Arial" font-size="14.00" fill="#666666">[BASE TABLE]</text>
<polygon fill="none" stroke="#000000" points="208,-375.5 208,-405.5 418,-405.5 418,-375.5 208,-375.5"/>
<text text-anchor="start" x="215" y="-386.9" font-family="Arial" font-size="14.00" fill="#000000">id </text>
<text text-anchor="start" x="229.7798" y="-386.9" font-family="Arial" font-size="14.00" fill="#666666">[bigint unsigned]</text>
<polygon fill="none" stroke="#000000" points="208,-345.5 208,-375.5 418,-375.5 418,-345.5 208,-345.5"/>
<text text-anchor="start" x="215" y="-356.9" font-family="Arial" font-size="14.00" fill="#000000">name </text>
<text text-anchor="start" x="253.899" y="-356.9" font-family="Arial" font-size="14.00" fill="#666666">[varchar(255)]</text>
<polygon fill="none" stroke="#000000" points="208,-315.5 208,-345.5 418,-345.5 418,-315.5 208,-315.5"/>
<text text-anchor="start" x="215" y="-326.9" font-family="Arial" font-size="14.00" fill="#000000">email </text>
<text text-anchor="start" x="252.3296" y="-326.9" font-family="Arial" font-size="14.00" fill="#666666">[varchar(255)]</text>
<polygon fill="none" stroke="#000000" points="208,-285.5 208,-315.5 418,-315.5 418,-285.5 208,-285.5"/>
<text text-anchor="start" x="215" y="-296.9" font-family="Arial" font-size="14.00" fill="#000000">sub_email </text>
<text text-anchor="start" x="282.6774" y="-296.9" font-family="Arial" font-size="14.00" fill="#666666">[varchar(255)]</text>
<polygon fill="none" stroke="#000000" points="208,-255.5 208,-285.5 418,-285.5 418,-255.5 208,-255.5"/>
<text text-anchor="start" x="215" y="-266.9" font-family="Arial" font-size="14.00" fill="#000000">email_verified_at </text>
<text text-anchor="start" x="324.6802" y="-266.9" font-family="Arial" font-size="14.00" fill="#666666">[timestamp]</text>
<polygon fill="none" stroke="#000000" points="208,-225.5 208,-255.5 418,-255.5 418,-225.5 208,-225.5"/>
<text text-anchor="start" x="215" y="-236.9" font-family="Arial" font-size="14.00" fill="#000000">password </text>
<text text-anchor="start" x="278.7882" y="-236.9" font-family="Arial" font-size="14.00" fill="#666666">[varchar(255)]</text>
<polygon fill="none" stroke="#000000" points="208,-195.5 208,-225.5 418,-225.5 418,-195.5 208,-195.5"/>
<text text-anchor="start" x="215" y="-206.9" font-family="Arial" font-size="14.00" fill="#000000">role </text>
<text text-anchor="start" x="242.223" y="-206.9" font-family="Arial" font-size="14.00" fill="#666666">[int]</text>
<polygon fill="none" stroke="#000000" points="208,-165.5 208,-195.5 418,-195.5 418,-165.5 208,-165.5"/>
<text text-anchor="start" x="215" y="-176.9" font-family="Arial" font-size="14.00" fill="#000000">gender </text>
<text text-anchor="start" x="262.4642" y="-176.9" font-family="Arial" font-size="14.00" fill="#666666">[int]</text>
<polygon fill="none" stroke="#000000" points="208,-135.5 208,-165.5 418,-165.5 418,-135.5 208,-135.5"/>
<text text-anchor="start" x="214.5982" y="-146.9" font-family="Arial" font-size="14.00" fill="#000000">remember_token </text>
<text text-anchor="start" x="324.2826" y="-146.9" font-family="Arial" font-size="14.00" fill="#666666">[varchar(100)]</text>
<polygon fill="none" stroke="#000000" points="208,-105.5 208,-135.5 418,-135.5 418,-105.5 208,-105.5"/>
<text text-anchor="start" x="215" y="-116.9" font-family="Arial" font-size="14.00" fill="#000000">created_at </text>
<text text-anchor="start" x="285.028" y="-116.9" font-family="Arial" font-size="14.00" fill="#666666">[timestamp]</text>
<polygon fill="none" stroke="#000000" points="208,-75.5 208,-105.5 418,-105.5 418,-75.5 208,-75.5"/>
<text text-anchor="start" x="215" y="-86.9" font-family="Arial" font-size="14.00" fill="#000000">updated_at </text>
<text text-anchor="start" x="288.9326" y="-86.9" font-family="Arial" font-size="14.00" fill="#666666">[timestamp]</text>
<polygon fill="none" stroke="#000000" points="208,-45.5 208,-75.5 418,-75.5 418,-45.5 208,-45.5"/>
<text text-anchor="start" x="215" y="-56.9" font-family="Arial" font-size="14.00" fill="#000000">deleted_at </text>
<text text-anchor="start" x="284.2566" y="-56.9" font-family="Arial" font-size="14.00" fill="#666666">[timestamp]</text>
<polygon fill="none" stroke="#000000" stroke-width="3" points="206.5,-44.5 206.5,-442.5 419.5,-442.5 419.5,-44.5 206.5,-44.5"/>
</g>
<!-- addresses -->
<g id="node2" class="node">
<title>addresses</title>
<polygon fill="#efefef" stroke="transparent" points="43,-835.5 43,-870.5 267,-870.5 267,-835.5 43,-835.5"/>
<polygon fill="none" stroke="#000000" points="43,-835.5 43,-870.5 267,-870.5 267,-835.5 43,-835.5"/>
<text text-anchor="start" x="49.7044" y="-848.3" font-family="Arial Bold" font-size="18.00" fill="#000000">addresses</text>
<text text-anchor="start" x="132.7276" y="-848.3" font-family="Arial" font-size="14.00" fill="#000000">    </text>
<text text-anchor="start" x="166.9324" y="-848.3" font-family="Arial" font-size="14.00" fill="#666666">[BASE TABLE]</text>
<polygon fill="none" stroke="#000000" points="43,-805.5 43,-835.5 267,-835.5 267,-805.5 43,-805.5"/>
<text text-anchor="start" x="50" y="-816.9" font-family="Arial" font-size="14.00" fill="#000000">id    </text>
<text text-anchor="start" x="95.094" y="-816.9" font-family="Arial" font-size="14.00" fill="#666666">[bigint unsigned]</text>
<polygon fill="none" stroke="#000000" points="43,-775.5 43,-805.5 267,-805.5 267,-775.5 43,-775.5"/>
<text text-anchor="start" x="50" y="-786.9" font-family="Arial" font-size="14.00" fill="#000000">user_id    </text>
<text text-anchor="start" x="130.1024" y="-786.9" font-family="Arial" font-size="14.00" fill="#666666">[int]</text>
<polygon fill="none" stroke="#000000" points="43,-745.5 43,-775.5 267,-775.5 267,-745.5 43,-745.5"/>
<text text-anchor="start" x="50" y="-756.9" font-family="Arial" font-size="14.00" fill="#000000">kind    </text>
<text text-anchor="start" x="109.8766" y="-756.9" font-family="Arial" font-size="14.00" fill="#666666">[int]</text>
<polygon fill="none" stroke="#000000" points="43,-715.5 43,-745.5 267,-745.5 267,-715.5 43,-715.5"/>
<text text-anchor="start" x="50" y="-726.9" font-family="Arial" font-size="14.00" fill="#000000">zipcode    </text>
<text text-anchor="start" x="132.4418" y="-726.9" font-family="Arial" font-size="14.00" fill="#666666">[char(7)]</text>
<polygon fill="none" stroke="#000000" points="43,-685.5 43,-715.5 267,-715.5 267,-685.5 43,-685.5"/>
<text text-anchor="start" x="50" y="-696.9" font-family="Arial" font-size="14.00" fill="#000000">address    </text>
<text text-anchor="start" x="133.9958" y="-696.9" font-family="Arial" font-size="14.00" fill="#666666">[char(255)]</text>
<polygon fill="none" stroke="#000000" points="43,-655.5 43,-685.5 267,-685.5 267,-655.5 43,-655.5"/>
<text text-anchor="start" x="50" y="-666.9" font-family="Arial" font-size="14.00" fill="#000000">street_number    </text>
<text text-anchor="start" x="174.446" y="-666.9" font-family="Arial" font-size="14.00" fill="#666666">[char(255)]</text>
<polygon fill="none" stroke="#000000" points="43,-625.5 43,-655.5 267,-655.5 267,-625.5 43,-625.5"/>
<text text-anchor="start" x="50" y="-636.9" font-family="Arial" font-size="14.00" fill="#000000">created_at    </text>
<text text-anchor="start" x="150.3422" y="-636.9" font-family="Arial" font-size="14.00" fill="#666666">[timestamp]</text>
<polygon fill="none" stroke="#000000" points="43,-595.5 43,-625.5 267,-625.5 267,-595.5 43,-595.5"/>
<text text-anchor="start" x="50" y="-606.9" font-family="Arial" font-size="14.00" fill="#000000">updated_at    </text>
<text text-anchor="start" x="154.2468" y="-606.9" font-family="Arial" font-size="14.00" fill="#666666">[timestamp]</text>
<polygon fill="none" stroke="#000000" points="43,-565.5 43,-595.5 267,-595.5 267,-565.5 43,-565.5"/>
<text text-anchor="start" x="50" y="-576.9" font-family="Arial" font-size="14.00" fill="#000000">deleted_at    </text>
<text text-anchor="start" x="149.5708" y="-576.9" font-family="Arial" font-size="14.00" fill="#666666">[timestamp]</text>
</g>
<!-- addresses&#45;&gt;users -->
<g id="edge1" class="edge">
<title>addresses:user_id&#45;&gt;users:id</title>
<path fill="none" stroke="#000000" stroke-dasharray="5,2" d="M276.8302,-788.2124C322.774,-764.9852 294.3338,-571.6986 267,-523 251.9648,-496.2129 223.0352,-513.7871 208,-487 187.0078,-449.5997 165.1111,-390.5 208,-390.5"/>
<polygon fill="#000000" stroke="#000000" points="276.7398,-788.2334 265.98,-786.1171 271.8699,-789.3667 267,-790.5 267,-790.5 267,-790.5 271.8699,-789.3667 268.02,-794.8829 276.7398,-788.2334 276.7398,-788.2334"/>
<text text-anchor="start" x="274.1305" y="-800.5" font-family="Arial" font-size="10.00" fill="#000000">addresses&#45;&gt;users</text>
</g>
<!-- profiles -->
<g id="node3" class="node">
<title>profiles</title>
<polygon fill="#efefef" stroke="transparent" points="372,-835.5 372,-870.5 571,-870.5 571,-835.5 372,-835.5"/>
<polygon fill="none" stroke="#000000" points="372,-835.5 372,-870.5 571,-870.5 571,-835.5 372,-835.5"/>
<text text-anchor="start" x="378.7153" y="-848.3" font-family="Arial Bold" font-size="18.00" fill="#000000">profiles</text>
<text text-anchor="start" x="436.7167" y="-848.3" font-family="Arial" font-size="14.00" fill="#000000">    </text>
<text text-anchor="start" x="470.9215" y="-848.3" font-family="Arial" font-size="14.00" fill="#666666">[BASE TABLE]</text>
<polygon fill="none" stroke="#000000" points="372,-805.5 372,-835.5 571,-835.5 571,-805.5 372,-805.5"/>
<text text-anchor="start" x="379" y="-816.9" font-family="Arial" font-size="14.00" fill="#000000">id    </text>
<text text-anchor="start" x="424.094" y="-816.9" font-family="Arial" font-size="14.00" fill="#666666">[bigint unsigned]</text>
<polygon fill="none" stroke="#000000" points="372,-775.5 372,-805.5 571,-805.5 571,-775.5 372,-775.5"/>
<text text-anchor="start" x="379" y="-786.9" font-family="Arial" font-size="14.00" fill="#000000">user_id    </text>
<text text-anchor="start" x="459.1024" y="-786.9" font-family="Arial" font-size="14.00" fill="#666666">[int]</text>
<polygon fill="none" stroke="#000000" points="372,-745.5 372,-775.5 571,-775.5 571,-745.5 372,-745.5"/>
<text text-anchor="start" x="379" y="-756.9" font-family="Arial" font-size="14.00" fill="#000000">hobby    </text>
<text text-anchor="start" x="451.3352" y="-756.9" font-family="Arial" font-size="14.00" fill="#666666">[char(255)]</text>
<polygon fill="none" stroke="#000000" points="372,-715.5 372,-745.5 571,-745.5 571,-715.5 372,-715.5"/>
<text text-anchor="start" x="379" y="-726.9" font-family="Arial" font-size="14.00" fill="#000000">blood_type    </text>
<text text-anchor="start" x="481.6802" y="-726.9" font-family="Arial" font-size="14.00" fill="#666666">[char(255)]</text>
<polygon fill="none" stroke="#000000" points="372,-685.5 372,-715.5 571,-715.5 571,-685.5 372,-685.5"/>
<text text-anchor="start" x="379" y="-696.9" font-family="Arial" font-size="14.00" fill="#000000">special_skill    </text>
<text text-anchor="start" x="487.8682" y="-696.9" font-family="Arial" font-size="14.00" fill="#666666">[char(255)]</text>
<polygon fill="none" stroke="#000000" points="372,-655.5 372,-685.5 571,-685.5 571,-655.5 372,-655.5"/>
<text text-anchor="start" x="379" y="-666.9" font-family="Arial" font-size="14.00" fill="#000000">birthday    </text>
<text text-anchor="start" x="462.993" y="-666.9" font-family="Arial" font-size="14.00" fill="#666666">[date]</text>
<polygon fill="none" stroke="#000000" points="372,-625.5 372,-655.5 571,-655.5 571,-625.5 372,-625.5"/>
<text text-anchor="start" x="379" y="-636.9" font-family="Arial" font-size="14.00" fill="#000000">created_at    </text>
<text text-anchor="start" x="479.3422" y="-636.9" font-family="Arial" font-size="14.00" fill="#666666">[timestamp]</text>
<polygon fill="none" stroke="#000000" points="372,-595.5 372,-625.5 571,-625.5 571,-595.5 372,-595.5"/>
<text text-anchor="start" x="379" y="-606.9" font-family="Arial" font-size="14.00" fill="#000000">updated_at    </text>
<text text-anchor="start" x="483.2468" y="-606.9" font-family="Arial" font-size="14.00" fill="#666666">[timestamp]</text>
<polygon fill="none" stroke="#000000" points="372,-565.5 372,-595.5 571,-595.5 571,-565.5 372,-565.5"/>
<text text-anchor="start" x="379" y="-576.9" font-family="Arial" font-size="14.00" fill="#000000">deleted_at    </text>
<text text-anchor="start" x="478.5708" y="-576.9" font-family="Arial" font-size="14.00" fill="#666666">[timestamp]</text>
</g>
<!-- profiles&#45;&gt;users -->
<g id="edge2" class="edge">
<title>profiles:user_id&#45;&gt;users:id</title>
<path fill="none" stroke="#000000" stroke-dasharray="5,2" d="M362.2014,-788.229C316.574,-765.1674 347.5397,-573.2034 372,-523 383.371,-499.6617 406.629,-510.3383 418,-487 436.7854,-448.444 460.8889,-390.5 418,-390.5"/>
<polygon fill="#000000" stroke="#000000" points="362.2582,-788.2421 370.9839,-794.8838 367.1291,-789.371 372,-790.5 372,-790.5 372,-790.5 367.1291,-789.371 373.0161,-786.1162 362.2582,-788.2421 362.2582,-788.2421"/>
<text text-anchor="start" x="300.081" y="-774.5" font-family="Arial" font-size="10.00" fill="#000000">profiles&#45;&gt;users</text>
</g>
</g>
</svg>
